<svg width="38" height="38" viewBox="0 0 38 38" fill="none" xmlns="http://www.w3.org/2000/svg">
<path d="M25.3243 3.98068C25.251 4.43901 25.2143 4.89735 25.2143 5.35568C25.2143 9.48068 28.551 12.8155 32.6577 12.8155C33.116 12.8155 33.556 12.7623 34.0143 12.689V27.4822C34.0143 33.699 30.3477 37.384 24.1143 37.384H10.5678C4.33268 37.384 0.666016 33.699 0.666016 27.4822V13.9173C0.666016 7.68401 4.33268 3.98068 10.5678 3.98068H25.3243ZM25.6928 15.1273C25.196 15.0723 24.7028 15.2923 24.4077 15.6957L19.9728 21.434L14.8927 17.4373C14.581 17.199 14.2143 17.1055 13.8477 17.144C13.4828 17.199 13.1528 17.3988 12.931 17.6922L7.50618 24.7523L7.39435 24.9173C7.08268 25.5022 7.22935 26.2538 7.77935 26.659C8.03602 26.824 8.31102 26.934 8.62268 26.934C9.04618 26.9523 9.44768 26.7305 9.70435 26.384L14.306 20.4605L19.531 24.3857L19.696 24.4938C20.2827 24.8055 21.016 24.6607 21.4377 24.1088L26.736 17.2723L26.6627 17.309C26.956 16.9057 27.011 16.3923 26.8093 15.934C26.6095 15.4757 26.1677 15.164 25.6928 15.1273ZM32.9145 0.716797C35.3529 0.716797 37.3329 2.6968 37.3329 5.13513C37.3329 7.57346 35.3529 9.55346 32.9145 9.55346C30.4762 9.55346 28.4962 7.57346 28.4962 5.13513C28.4962 2.6968 30.4762 0.716797 32.9145 0.716797Z" fill="#FAA017"/>
</svg>
