<svg width="44" height="45" viewBox="0 0 44 45" fill="none" xmlns="http://www.w3.org/2000/svg">
<path d="M22.0003 3.7168C32.1049 3.7168 40.3337 11.9416 40.3337 22.0607C40.3337 32.1587 32.1049 40.3835 22.0003 40.3835C11.8958 40.3835 3.66699 32.1587 3.66699 22.0607C3.66699 11.9416 11.8958 3.7168 22.0003 3.7168ZM19.9122 14.7716C19.5228 14.7716 19.1512 14.8601 18.7973 15.0369C18.3549 15.2846 18.001 15.6737 17.8063 16.1336C17.6824 16.452 17.4878 17.4071 17.4878 17.4248C17.2931 18.4684 17.1869 20.1664 17.1869 22.0413C17.1869 23.8295 17.2931 25.455 17.4524 26.5163C17.4701 26.534 17.6647 27.719 17.8771 28.1259C18.2664 28.8688 19.0274 29.3286 19.8414 29.3286H19.9122C20.4431 29.3109 21.5579 28.8511 21.5579 28.8334C23.4337 28.0551 27.1322 25.6319 28.6187 24.0223L28.7249 23.9162C28.9196 23.7216 29.1673 23.4209 29.2204 23.3502C29.5035 22.9787 29.6451 22.5189 29.6451 22.0607C29.6451 21.546 29.4858 21.0685 29.185 20.6793C29.1142 20.6086 28.8488 20.3079 28.601 20.0603C27.1499 18.5037 23.3629 15.9567 21.381 15.1784C21.0801 15.0564 20.3192 14.7893 19.9122 14.7716Z" fill="#00E29F"/>
</svg>
