<svg width="44" height="45" viewBox="0 0 44 45" fill="none" xmlns="http://www.w3.org/2000/svg">
<path d="M32.305 32.4163C33.0136 31.7125 34.1495 31.7125 34.8581 32.4163L39.5417 36.1969H39.623C40.5705 37.1546 40.5705 38.7074 39.623 39.6652C38.6755 40.6229 37.1392 40.6229 36.1917 39.6652L32.305 35.2107L32.1575 35.0442C31.8827 34.6965 31.731 34.2629 31.731 33.8135C31.731 33.2892 31.9375 32.7864 32.305 32.4163ZM19.3927 3.7168C23.5634 3.7168 27.5633 5.39143 30.5124 8.3723C33.4615 11.3532 35.1183 15.3961 35.1183 19.6117C35.1183 28.3902 28.0777 35.5065 19.3927 35.5065C10.7076 35.5065 3.66699 28.3902 3.66699 19.6117C3.66699 10.8332 10.7076 3.7168 19.3927 3.7168Z" fill="#F6515B"/>
</svg>
