<svg width="44" height="45" viewBox="0 0 44 45" fill="none" xmlns="http://www.w3.org/2000/svg">
<path d="M39.9851 23.5447C40.1172 23.619 40.1436 23.7764 40.1489 23.8364L40.1502 23.8603L40.0035 33.3286C40.0035 37.1055 37.0771 40.1855 33.3922 40.3743L33.0333 40.3835H10.949C7.21741 40.3835 4.17442 37.4215 3.98788 33.6919L3.97881 33.3286L3.85042 23.8603C3.85042 23.8603 3.85042 23.6376 4.0155 23.5447C4.16224 23.4519 4.34566 23.5633 4.36401 23.5819C8.06919 26.0696 12.5264 27.7219 17.2038 28.4088C17.8641 28.5017 18.5244 28.0747 18.7078 27.4063C19.0862 25.9791 20.2544 25.0088 21.6836 24.8931L21.9728 24.8814H22.0278C23.587 24.8814 24.8893 25.884 25.2928 27.4063C25.4762 28.0747 26.1366 28.5017 26.7969 28.4088C31.4742 27.7219 35.9315 26.0696 39.6366 23.5819C39.6366 23.5819 39.6733 23.5633 39.71 23.5447C39.7834 23.5076 39.8934 23.489 39.9851 23.5447ZM21.9912 27.5363C21.3018 27.5363 20.7203 28.0667 20.6282 28.7414L20.6155 28.9287V31.3236C20.6155 32.1033 21.2391 32.716 21.9912 32.716C22.6973 32.716 23.2648 32.2012 23.3545 31.5148L23.3668 31.3236V28.9287C23.3668 28.1675 22.7615 27.5363 21.9912 27.5363ZM24.3573 3.7168C27.1087 3.7168 29.3648 5.81468 29.7134 8.50665H33.3452C37.1971 8.50665 40.3337 11.6813 40.3337 15.58C40.3337 15.58 40.2236 17.2305 40.1869 19.5289C40.1833 19.7108 40.0952 19.889 39.9503 19.9967C39.068 20.6484 38.261 21.1868 38.1876 21.2239C35.1427 23.2661 31.6045 24.703 27.8351 25.4178C27.5893 25.4661 27.3472 25.338 27.2224 25.1189C26.1659 23.2883 24.1923 22.0965 21.9912 22.0965C19.8047 22.0965 17.8127 23.2753 16.725 25.1077C16.5985 25.3231 16.36 25.4475 16.1161 25.4011C12.3778 24.6845 8.83958 23.2494 5.81307 21.2424L4.05218 20.0171C3.90544 19.9243 3.81373 19.7572 3.81373 19.5716C3.7587 18.6247 3.66699 15.58 3.66699 15.58C3.66699 11.6813 6.80356 8.50665 10.6555 8.50665H14.269C14.6175 5.81468 16.8736 3.7168 19.625 3.7168H24.3573ZM24.3573 6.50159H19.625C18.396 6.50159 17.3505 7.3556 17.057 8.50665H26.9253C26.6318 7.3556 25.5863 6.50159 24.3573 6.50159Z" fill="#0CC38A"/>
</svg>
